<svg width="48" height="48" viewBox="0 0 48 48" fill="none" xmlns="http://www.w3.org/2000/svg">
<rect width="48" height="48" fill="white"/>
<rect x="28" y="42" width="18" height="2" fill="#0070E0"/>
<path d="M12 11.2532L26 7V43H17C17 43 24 36.5 23 30C22 23.5 12 23 12 23V11.2532Z" fill="#E0F0FF"/>
<path d="M40 20.443L24 15V43H40V20.443Z" fill="#E0F0FF"/>
<path d="M9 24.5V9.58228L29 3V43H16" stroke="#0070E0" stroke-width="2" stroke-linejoin="round"/>
<path d="M43 18.7722L29 14V43H43V18.7722Z" stroke="#0070E0" stroke-width="2" stroke-linejoin="round"/>
<rect x="34" y="36" width="4" height="7" rx="1" fill="white" stroke="#0070E0" stroke-width="2"/>
<rect x="16" y="13.5" width="6" height="4" rx="1" stroke="#0070E0" stroke-width="2"/>
<circle cx="36" cy="26.5" r="2" stroke="#0070E0" stroke-width="2"/>
<rect x="12" y="29" width="3" height="6" fill="#E0F0FF"/>
<path d="M12.9295 46.9718L12.9293 46.9717L5.16547 37.9475C2.01423 34.2847 2.33383 29.0249 5.91917 25.7099C9.8271 22.0967 16.1729 22.0967 20.0809 25.7099C23.6662 29.0249 23.9858 34.2847 20.8346 37.9476L13.0707 46.9716C13.0707 46.9716 13.0707 46.9717 13.0707 46.9717C13.0595 46.9847 13.0348 47 13 47C12.9651 47 12.9405 46.9846 12.9295 46.9718ZM6.051 25.7564L6.70157 26.46L6.051 25.7564C2.50211 29.0377 2.17758 34.2736 5.30686 37.911L5.30686 37.911L12.2419 45.9719L13 46.853L13.7581 45.9719L20.6932 37.911L20.6932 37.911C23.8224 34.2736 23.4979 29.0377 19.949 25.7564C16.1084 22.2054 9.89154 22.2054 6.051 25.7564ZM16.299 31.8124C16.299 33.5967 14.8328 35.0625 13 35.0625C11.1672 35.0625 9.70103 33.5967 9.70103 31.8124C9.70103 30.0282 11.1672 28.5623 13 28.5623C14.8328 28.5623 16.299 30.0282 16.299 31.8124Z" stroke="#282828" stroke-width="2"/>
</svg>
