<svg width="50" height="48" viewBox="0 0 50 48" fill="none" xmlns="http://www.w3.org/2000/svg">
<rect width="48" height="48" transform="translate(1.33331)" fill="white"/>
<path d="M42.3333 25.5C42.3333 31.8513 35.3777 37 26.7976 37C26.1941 37 26.9189 37.0496 26.3333 37L25.7619 29.3333C22.2845 27.2243 17.4762 28.2381 17.4762 28.2381C17.4762 26.141 18.6786 21.9227 13.5 20C17 16 22 13.5 28.5 13.5C36.5 13.5 42.3333 18.5 42.3333 25.5Z" fill="#E0F0FF"/>
<path d="M22.6608 11.9376L22.3811 10.5479C14.2658 12.1814 8.64103 17.8883 8.64103 24.9726C8.64103 26.9603 9.08195 28.8518 9.91216 30.5817L11.1309 29.8422C10.4287 28.3327 10.0586 26.6926 10.0586 24.9726C10.0586 18.624 15.1608 13.4473 22.6608 11.9376ZM41.8777 18.1685L42.0099 18.3605C43.2374 20.1434 43.9411 22.1561 44.0619 24.3036L44.0995 24.9726H45.4981C46.0761 24.9726 46.9157 25.4692 46.9157 25.6814V29.9341C46.9157 30.1463 46.0761 30.6429 45.4981 30.6429H42.605L42.3981 30.9843C40.8786 33.4913 38.3983 35.5323 35.2871 36.8436L34.8003 37.0488L34.8578 37.5739C34.8634 37.6256 34.8663 37.678 34.8663 37.7308V39.8572C34.8663 40.6401 34.2316 41.2748 33.4487 41.2748C32.6658 41.2748 32.0311 40.6401 32.0311 39.8572V37.9062L31.192 38.0632C29.8589 38.3126 28.4777 38.4396 27.0696 38.4396C26.4581 38.4396 25.8515 38.4157 25.2513 38.3681L25.1392 39.7812C25.7767 39.8318 26.4208 39.8572 27.0696 39.8572C28.2721 39.8572 29.4573 39.7698 30.6135 39.5975V39.8572C30.6135 41.423 31.8829 42.6923 33.4487 42.6923C35.0145 42.6923 36.2839 41.423 36.2839 39.8572V37.9554C39.3162 36.589 41.7822 34.5546 43.3965 32.0605H45.4981C46.7564 32.0605 48.3333 31.1278 48.3333 29.9341V25.6814C48.3333 24.4877 46.7564 23.555 45.4981 23.555H45.4224C45.196 21.4559 44.4658 19.4803 43.282 17.7106C43.009 16.2645 43.2801 15.1892 43.9518 14.1764C44.1107 13.9367 44.6384 13.2541 44.7134 13.1394C45.095 12.5566 45.0872 11.9252 44.3975 11.5804C43.2217 10.9925 41.3814 11.6075 38.7086 13.3011C37.0905 12.2624 35.2516 11.4525 33.2646 10.9059L32.8886 12.2727C34.8909 12.8236 36.7248 13.6583 38.3048 14.7332L38.6953 14.999L39.0909 14.7408C40.9982 13.4957 42.4019 12.8656 43.2119 12.7835C43.0512 12.9977 42.8696 13.2433 42.7704 13.393C41.9094 14.6913 41.5457 16.1268 41.8847 17.9508L41.8777 18.1685Z" fill="#0070E0" stroke="#0070E0" stroke-width="0.6"/>
<path d="M34.5962 16.4137C34.9581 16.5628 35.3724 16.3904 35.5216 16.0284C35.6708 15.6665 35.4983 15.2522 35.1364 15.103C30.2337 13.0825 25.5403 13.0825 21.1041 15.1139C20.7482 15.2769 20.5918 15.6976 20.7548 16.0535C20.9178 16.4094 21.3384 16.5658 21.6944 16.4028C25.7637 14.5394 30.0483 14.5394 34.5962 16.4137Z" fill="#0070E0" stroke="#0070E0" stroke-width="0.6"/>
<path d="M9.08404 15.0268C8.80889 15.9493 8.10039 17.0086 7.3129 17.796C6.40957 18.6994 4.97893 18.3066 4.97893 17.5884C4.97893 15.961 6.01037 14.7533 8.52288 14.7533C8.74769 14.7533 8.95537 14.7654 9.1463 14.7904C9.12884 14.8674 9.10806 14.9462 9.08404 15.0268ZM8.52288 13.3357C5.17348 13.3357 3.56135 15.2233 3.56135 17.5884C3.56135 19.6915 6.59065 20.5231 8.31528 18.7984C9.25593 17.8578 10.0916 16.6084 10.4425 15.4319C10.4448 15.4243 10.447 15.4166 10.4493 15.409C10.8485 15.8941 10.9466 16.6651 10.7756 17.7768C10.7161 18.1637 10.9815 18.5256 11.3684 18.5851C11.7553 18.6446 12.1172 18.3792 12.1767 17.9923C12.5003 15.8889 11.9464 14.4306 10.5971 13.7577C10.4605 12.8105 9.8975 12.0033 8.864 11.4358C6.67526 10.2341 4.44997 10.7359 2.35136 12.8345C2.07456 13.1113 2.07456 13.5601 2.35136 13.8369C2.62816 14.1137 3.07695 14.1137 3.35375 13.8369C5.03536 12.1553 6.59027 11.8047 8.18176 12.6785C8.53443 12.8721 8.79143 13.0946 8.96079 13.35C8.81918 13.3405 8.6732 13.3357 8.52288 13.3357Z" fill="#0070E0" stroke="#0070E0" stroke-width="0.6"/>
<path d="M24.7261 14.9818L24.8849 15.0684H30.8065L30.9727 14.9707C32.9036 13.8362 34.1576 11.6725 34.1576 9.37912C34.1576 5.85603 31.3016 3 27.7785 3C24.2554 3 21.3994 5.85603 21.3994 9.37912C21.3994 11.7389 22.6924 13.8717 24.7261 14.9818ZM22.8169 9.37912C22.8169 6.63894 25.0383 4.41758 27.7785 4.41758C30.5187 4.41758 32.74 6.63894 32.74 9.37912C32.74 11.103 31.8238 12.7453 30.4135 13.6509H25.253C23.7581 12.7656 22.8169 11.1555 22.8169 9.37912Z" fill="#0070E0" stroke="#0070E0" stroke-width="0.6"/>
<path fill-rule="evenodd" clip-rule="evenodd" d="M14.7578 19.6642L14.751 19.6642C14.7173 19.6641 14.637 19.6638 14.5537 19.6821C14.1912 19.7483 13.7243 19.9756 13.3602 20.4257C12.9868 20.8872 12.7393 21.5602 12.792 22.4823V24.1217C12.7711 24.3083 12.6131 25.5162 11.9957 26.8573C11.4039 28.1428 10.4065 29.5179 8.73225 30.2627C8.52593 29.5905 7.89859 29.0993 7.1604 29.0993H3.76701C2.86185 29.0993 2.12335 29.8378 2.12335 30.743V43.6923C2.12335 44.5974 2.86185 45.3359 3.76701 45.3359H7.1604C7.911 45.3359 8.54352 44.8309 8.74153 44.1427H22.33C23.8947 44.1427 25.172 42.8655 25.172 41.3008C25.172 40.9276 25.1003 40.5723 24.9696 40.2462C26.0382 39.8359 26.7982 38.8028 26.7982 37.5902C26.7982 37.0682 26.6559 36.5777 26.4094 36.1562C27.0983 35.6405 27.5433 34.8143 27.5433 33.8896C27.5433 33.1824 27.285 32.5339 26.857 32.0369C27.285 31.5398 27.5433 30.8914 27.5433 30.1841C27.5433 28.6139 26.2656 27.3422 24.7014 27.3422H19.0342C19.1263 26.626 19.1961 25.6921 19.1281 24.7237C19.0451 23.5421 18.7542 22.264 18.0039 21.2737L18.0025 21.272C17.2342 20.2698 16.0229 19.6698 14.7595 19.6642H14.7578ZM14.8697 21.7206C14.8867 21.6903 14.9035 21.6685 14.9182 21.6529C15.5088 21.6975 16.0683 21.9965 16.4311 22.4704C17.0677 23.3134 17.2136 24.6704 17.1687 25.905C17.1467 26.5087 17.0804 27.0571 17.0188 27.4575C16.961 27.8328 16.9084 28.0714 16.9025 28.0983C16.9022 28.0995 16.902 28.1003 16.9019 28.1006C16.9018 28.1008 16.9018 28.1007 16.9019 28.1006L16.8996 28.1108C16.8834 28.1834 16.8751 28.2571 16.8751 28.3314C16.8751 28.5916 16.9739 28.8469 17.1718 29.0362C17.3518 29.2084 17.5917 29.3205 17.8643 29.3205H24.7014C25.1758 29.3205 25.5651 29.7098 25.5651 30.1842C25.5651 30.6586 25.1758 31.0478 24.7014 31.0478H19.8781C19.3305 31.0478 18.889 31.4893 18.889 32.037C18.889 32.5847 19.3304 33.0261 19.8781 33.0261H24.7014C25.1758 33.0261 25.5651 33.4154 25.5651 33.8898C25.5651 34.3641 25.1758 34.7533 24.7014 34.7533H20.4571C19.9094 34.7533 19.468 35.1947 19.468 35.7424C19.468 36.2901 19.9094 36.7316 20.4571 36.7316H23.9562C24.4306 36.7316 24.8199 37.1208 24.8199 37.5952C24.8199 38.0696 24.4306 38.4589 23.9562 38.4589H21.1167C20.9465 38.4589 20.7883 38.5 20.6472 38.5747L20.6442 38.5763C20.3389 38.7414 20.1225 39.0705 20.1225 39.448C20.1225 39.9957 20.564 40.4372 21.1117 40.4372H22.3385C22.807 40.4412 23.1887 40.8243 23.1887 41.3008C23.1887 41.5297 23.0989 41.7476 22.9354 41.9112C22.7713 42.0753 22.5581 42.1645 22.325 42.1645H8.80913V32.3539C10.9417 31.6458 12.6154 30.1098 13.6889 27.8975C14.1529 26.9435 14.4232 26.037 14.5777 25.3674C14.6551 25.0321 14.7038 24.7548 14.7333 24.5589C14.7481 24.4609 14.7581 24.383 14.7644 24.3281C14.7676 24.3007 14.7699 24.2789 14.7715 24.2629C14.7717 24.2612 14.7753 24.2279 14.7753 24.2029V22.4135L14.7745 22.4013C14.7501 22.01 14.8186 21.8119 14.8697 21.7206ZM4.10161 43.3526V31.0775H6.8258V43.3526H4.10161Z" fill="#282828"/>
</svg>
