<svg width="49" height="48" viewBox="0 0 49 48" fill="none" xmlns="http://www.w3.org/2000/svg">
<rect width="48" height="48" transform="translate(0.666626)" fill="white"/>
<rect x="15.6666" y="5" width="30" height="38" rx="3" fill="white" stroke="#0070E0" stroke-width="2"/>
<path d="M18.6666 14H42.6666V39C42.6666 39.5523 42.2189 40 41.6666 40H19.6666C19.1143 40 18.6666 39.5523 18.6666 39V14Z" fill="#E0F0FF"/>
<rect x="21.6666" y="3" width="18" height="4" rx="1" fill="white" stroke="#0070E0" stroke-width="2"/>
<rect x="14.6666" y="10" width="32" height="2" rx="1" fill="#0070E0"/>
<rect x="29.6666" y="17" width="10" height="2" fill="#0070E0"/>
<mask id="path-6-inside-1" fill="white">
<rect x="21.6666" y="15" width="6" height="6" rx="1"/>
</mask>
<rect x="21.6666" y="15" width="6" height="6" rx="1" fill="white" stroke="#0070E0" stroke-width="4" mask="url(#path-6-inside-1)"/>
<mask id="path-7-inside-2" fill="white">
<rect x="21.6666" y="24" width="6" height="6" rx="1"/>
</mask>
<rect x="21.6666" y="24" width="6" height="6" rx="1" fill="white" stroke="#0070E0" stroke-width="4" mask="url(#path-7-inside-2)"/>
<mask id="path-8-inside-3" fill="white">
<rect x="21.6666" y="33" width="6" height="6" rx="1"/>
</mask>
<rect x="21.6666" y="33" width="6" height="6" rx="1" fill="white" stroke="#0070E0" stroke-width="4" mask="url(#path-8-inside-3)"/>
<rect x="30.6666" y="26" width="9" height="2" fill="#0070E0"/>
<rect x="30.6666" y="35" width="9" height="2" fill="#0070E0"/>
<circle cx="13.6666" cy="33" r="11" fill="white" stroke="#282828" stroke-width="2"/>
<path d="M6.66663 33L11.1666 37.5L20.1666 28.5" stroke="#282828" stroke-width="2"/>
</svg>
